<svg xmlns="http://www.w3.org/2000/svg" width="251" height="44" viewBox="0 0 251 44" fill="none">
    <path fill-rule="evenodd" clip-rule="evenodd"
          d="M36.9179 42.935H21.5292C9.78197 42.935 0.224609 33.3724 0.224609 21.6199C0.224609 9.8667 9.78197 0.304688 21.5292 0.304688C33.4754 0.304688 42.8335 9.40858 42.8335 21.0296V42.8949H39.5274V21.0296C39.5274 11.2635 31.6223 3.61245 21.5292 3.61245C11.6049 3.61245 3.5307 11.6903 3.5307 21.6199C3.5307 31.5493 11.6049 39.6274 21.5292 39.6274H36.9179V42.935Z"
          fill="#FFFFFF"/>
    <path fill-rule="evenodd" clip-rule="evenodd"
          d="M31.4737 37.4665H21.5315C12.7963 37.4665 5.68945 30.3563 5.68945 21.6172C5.68945 12.8769 12.7963 5.76709 21.5315 5.76709C30.4151 5.76709 37.3737 12.5992 37.3737 21.3217V37.4279H34.0677V21.3217C34.0677 14.4538 28.5619 9.075 21.5315 9.075C14.6194 9.075 8.99547 14.7014 8.99547 21.6172C8.99547 28.5319 14.6194 34.1588 21.5315 34.1588H31.4737V37.4665Z"
          fill="#FFFFFF"/>
    <path fill-rule="evenodd" clip-rule="evenodd"
          d="M26.0337 31.9987H21.5388C15.8144 31.9987 11.1582 27.3409 11.1582 21.6138C11.1582 15.8874 15.8144 11.229 21.5388 11.229C27.2622 11.229 31.9184 15.8874 31.9184 21.6138V31.9613H28.6124V21.6138C28.6124 17.7119 25.4394 14.5367 21.5388 14.5367C17.6373 14.5367 14.4642 17.7119 14.4642 21.6138C14.4642 25.5164 17.6373 28.6911 21.5388 28.6911H26.0337V31.9987Z"
          fill="#FFFFFF"/>
    <path fill-rule="evenodd" clip-rule="evenodd"
          d="M112.242 24.0114C112.242 18.4121 116.405 14.3484 122.106 14.3484C125.621 14.3484 128.658 15.9189 130.637 18.9244L128.113 20.631C126.849 18.2751 124.666 17.0799 122.106 17.0799C118.214 17.0799 115.28 19.9484 115.28 24.0114C115.28 28.0752 118.214 30.9099 122.106 30.9099C124.835 30.9099 127.019 29.6127 128.623 26.6744L131.013 28.4161C129.102 31.8648 125.962 33.6413 122.106 33.6413C116.405 33.6413 112.242 29.6127 112.242 24.0114ZM65.0453 28.3827H74.8076L77.2985 33.1633H80.541L71.0863 14.7581H68.7669L59.4141 33.1633H62.6229L65.0453 28.3827ZM73.4434 25.6508H66.4465L69.9278 18.8549L73.4434 25.6508ZM90.8563 25.3772H97.4427L102.052 33.1633H105.362L100.685 25.2415C103.28 24.6254 104.883 22.5425 104.883 20.0169C104.883 16.7039 102.529 14.7581 98.7746 14.7581H87.8876V33.1633H90.8563V25.3772ZM90.8563 22.6458V17.4553H98.741C100.789 17.4553 101.811 18.445 101.811 20.0853C101.811 21.7577 100.822 22.6458 98.6376 22.6458H90.8563ZM145.595 33.1617H147.199V16.2598H154.948V14.7584H137.849V16.2598H145.595V33.1617ZM160.231 24.0115C160.231 18.4121 164.121 14.3484 169.411 14.3484C174.735 14.3484 178.659 18.4121 178.659 24.0115C178.659 29.6127 174.735 33.6413 169.445 33.6413C164.121 33.6413 160.231 29.6127 160.231 24.0115ZM161.903 24.0113C161.903 28.7234 165.146 32.1037 169.41 32.1037C173.746 32.1037 176.954 28.6887 176.954 24.0113C176.954 19.2989 173.746 15.8845 169.445 15.8845C165.146 15.8845 161.903 19.2989 161.903 24.0113ZM186.832 14.7584V27.3927C186.832 31.8308 188.777 33.641 194.102 33.641C199.392 33.641 201.338 31.8308 201.338 27.3927V14.7584H199.699V26.7776C199.699 30.9768 198.436 32.1048 194.067 32.1048C189.733 32.1048 188.435 30.9768 188.435 26.7776V14.7584H186.832ZM210.699 24.0114C210.699 18.4121 214.59 14.3484 219.879 14.3484C223.055 14.3484 225.785 15.8169 227.459 18.3779L226.126 19.3675C224.863 17.1483 222.508 15.8846 219.879 15.8846C215.58 15.8846 212.372 19.299 212.372 24.0114C212.372 28.7236 215.58 32.1038 219.879 32.1038C222.748 32.1038 225.067 30.6709 226.605 27.9381L227.902 28.9292C226.229 31.9681 223.362 33.6413 219.879 33.6413C214.59 33.6413 210.699 29.6127 210.699 24.0114ZM237.259 23.8076H248.795V33.1633H250.398V14.7581H248.759V22.3045H237.224V14.7581H235.585V33.1633H237.259V23.8076Z"
          fill="#FFFFFF"/>
</svg>
