<svg preserveAspectRatio="xMidYMid meet" data-bbox="0 0 92.012 65.612" xmlns="http://www.w3.org/2000/svg"
     viewBox="0 0 92.012 65.612" width="134" height="48" data-type="color" role="presentation" aria-hidden="true"
     aria-label="">
    <g>
        <path fill="#fff"
              d="M91.92 20.381c-.1-.087-.273-.098-.574-.115-.563-.033-3.95-.217-5.458-.302-.614-.038-.915.161-1.262.575-.342.409-9.716 11.715-9.716 11.715S85.336 3.037 85.609 2.247c.354-1.028.19-1.291-.62-1.408-.862-.123-4.743-.318-5.33-.318-.751 0-1.069.169-1.386 1.096-.232.677-15.548 43.926-15.816 44.695-.427 1.224-.41 1.268.78 1.271.7.002 4.022-.006 5.461-.01.41 0 .653.036.878-.585l4.81-13.286s2.334 12.612 2.446 13.172c.103.515.212.685.84.684 1.559-.001 5.164-.006 5.496-.012.616-.008.747-.156.653-.697-.096-.552-2.45-13.622-2.45-13.622s10.068-11.78 10.467-12.25c.198-.233.228-.47.082-.596Zm-26.542-.574c-.972-.55-2.991-1.526-5.533-1.639-3.856-.172-6.76 1.093-8.534 3.47-1.795 2.402-2.052 5.38-1.821 6.923.232 1.534 1.162 3.418 2.569 5.13 3.136 3.816 2.634 6.279 1.94 7.29-.825 1.195-2.81 1.955-5.21 1.025-2.4-.932-2.916-2.695-2.916-2.695s-1.91 4.089-2.28 4.894c-.492 1.07-.433 1.426.55 2.03 1.3.8 3.875 1.84 8.35 1.674 3.065-.114 6.096-2.035 7.784-4.289 1.744-2.331 3.333-7.15-.232-11.59-2.883-3.592-3.16-4.172-3.423-4.904-.476-1.316.284-2.637 1.05-3.303.683-.596 1.462-.824 2.634-.573 1.171.251 3.046 2.182 3.046 2.182s2.195-4.075 2.367-4.4c.27-.514.196-.922-.341-1.225ZM27.856 33.22l9.817-15.7-2.42 15.707-7.397-.007ZM42.727.671C40.551 3.777.63 60.691.262 61.221c-.52.749-.235.963.578.971.571.005 5.642-.003 7.136-.007.503 0 .703-.061.92-.417.107-.176 15.311-22.407 15.311-22.407l10.062.015s-.921 6.357-1.085 7.475c-.069.47-.074.787.755.788.954 0 4.894-.008 5.465-.012 1.003-.005 1.134-.241 1.207-1.147.053-.66 3.514-42.183 3.758-45.434.103-1.379-1.01-1.278-1.642-.375Z"
              clip-rule="evenodd" fill-rule="evenodd" data-color="1"></path>
        <path fill="#fff"
              d="m20.687 51.273 2.362 5.988 2.346-5.988h1.279V62.15h-.965v-6.94l.007-1.785c0-.223-.002-.556-.007-.998-.189.712-.44 1.476-.754 2.293l-1.906 4.935-1.617-4.148c-.314-.8-.688-1.796-1.122-2.986.068 2.344.102 3.646.102 3.906v5.723H19.4V51.273h1.287Zm12.735 10.098c-.795.634-1.572.95-2.33.95-.89 0-1.609-.354-2.158-1.063-.55-.71-.824-1.634-.824-2.772 0-1.175.284-2.125.851-2.85.568-.725 1.286-1.088 2.154-1.088.77 0 1.386.292 1.852.877.466.585.698 1.324.698 2.219v.483h-4.543v.382c0 .967.203 1.697.608 2.191.406.494.88.74 1.424.74.754 0 1.51-.412 2.268-1.239v1.17Zm-.808-4.078c-.021-.619-.18-1.083-.479-1.392-.298-.31-.646-.464-1.043-.464-.403 0-.778.155-1.126.464-.348.31-.595.773-.742 1.392h3.39Zm6.419-6.02h.996V62.15h-.996v-1.044c-.246.405-.525.71-.836.912a1.839 1.839 0 0 1-1.024.304c-.785 0-1.42-.384-1.907-1.15-.486-.767-.73-1.66-.73-2.679 0-1.091.269-2.022.805-2.791.536-.77 1.217-1.154 2.044-1.154.267 0 .537.06.812.18.275.119.553.3.836.545v-4Zm0 4.944a2.097 2.097 0 0 0-.667-.558 1.71 1.71 0 0 0-.785-.183c-.58 0-1.064.275-1.452.826-.387.551-.58 1.28-.58 2.184 0 .847.17 1.549.51 2.105.34.556.774.834 1.302.834.466 0 .86-.205 1.185-.616.325-.41.487-.93.487-1.56v-3.032Zm3.123-4.788c.387 0 .58.294.58.881 0 .619-.198.928-.596.928-.382 0-.572-.299-.572-.897 0-.608.196-.912.588-.912Zm-.502 3.29h.98v7.431h-.98v-7.43Zm2.793.492c.8-.442 1.473-.663 2.017-.663.785 0 1.379.226 1.781.678.403.458.605 1.071.605 1.84v3.923c0 .286.136.428.407.428a.87.87 0 0 0 .424-.117v.85a1.837 1.837 0 0 1-.769.172c-.68 0-1.03-.398-1.051-1.193-.256.395-.542.693-.855.893-.314.2-.654.3-1.02.3a1.967 1.967 0 0 1-1.5-.647c-.402-.432-.603-.96-.603-1.583 0-.66.25-1.209.749-1.645.5-.437 1.576-.733 3.229-.89v-.639c0-.42-.137-.768-.412-1.04a1.394 1.394 0 0 0-1.024-.41c-.58 0-1.24.286-1.977.858V55.21Zm3.414 3.11c-1.292.157-2.11.377-2.452.66a1.34 1.34 0 0 0-.514 1.08c0 .395.125.72.376.978.252.258.568.386.95.386.476 0 .868-.197 1.177-.592.308-.395.463-.902.463-1.52v-.991Zm11.064 2.761c-.246.41-.524.72-.835.928a1.818 1.818 0 0 1-1.032.312c-.597 0-1.16-.247-1.687-.74-.529-.495-.916-1.178-1.162-2.051a9.964 9.964 0 0 1-.369-2.714c0-1.731.361-3.118 1.083-4.16.722-1.042 1.664-1.563 2.825-1.563.654 0 1.326.223 2.017.67v1.31c-.717-.67-1.397-1.005-2.04-1.005-.848 0-1.527.433-2.037 1.302-.51.868-.765 2.045-.765 3.532 0 1.221.213 2.266.64 3.134.426.868.971 1.302 1.636 1.302.47 0 .876-.232 1.216-.697.34-.466.51-1.036.51-1.712v-1.294h-2.017v-.928h3.076v5.442h-.674l-.385-1.068Zm3.422-5.263c.235-.426.498-.745.788-.955.29-.21.608-.316.953-.316.257 0 .516.057.777.172v.92c-.303-.115-.56-.172-.769-.172-.497 0-.913.231-1.247.694a2.644 2.644 0 0 0-.502 1.59v4.398h-.966v-7.43h.88l.085 1.099Zm6.16-1.271c.82 0 1.506.355 2.055 1.064.55.71.824 1.65.824 2.82 0 .675-.108 1.313-.325 1.913-.218.6-.554 1.08-1.009 1.439a2.487 2.487 0 0 1-1.585.538c-.894 0-1.6-.367-2.114-1.1-.516-.733-.773-1.65-.773-2.752 0-.878.162-1.637.486-2.277.325-.64.72-1.073 1.189-1.302.468-.229.885-.343 1.251-.343Zm.062.92c-.654 0-1.145.276-1.475.827-.33.55-.494 1.302-.494 2.253 0 .816.162 1.5.486 2.05.325.552.78.827 1.365.827.555 0 1.011-.256 1.37-.768.358-.512.537-1.26.537-2.241 0-.936-.175-1.661-.526-2.176-.35-.515-.771-.772-1.263-.772Zm8.059-.748h.98v7.43h-.98v-1.02c-.277.395-.58.693-.91.893-.33.2-.686.3-1.067.3-.639 0-1.137-.216-1.495-.647-.359-.432-.538-1.009-.538-1.731V54.72h.973v5.224c0 .494.105.864.314 1.11.21.248.523.371.942.371.523 0 .95-.22 1.283-.659.332-.439.498-1.004.498-1.696v-4.35Zm3.594 10.892h-.973V54.72h.879l.094 1.076c.267-.416.559-.728.875-.936a1.818 1.818 0 0 1 1.016-.312c.8 0 1.435.368 1.903 1.103.468.736.702 1.639.702 2.71 0 1.3-.302 2.285-.906 2.955-.604.67-1.267 1.006-1.99 1.006-.282 0-.556-.06-.823-.18a2.79 2.79 0 0 1-.777-.538v4.008Zm0-4.927c.215.244.443.428.687.553.243.125.5.187.772.187.592 0 1.077-.278 1.456-.834.38-.556.569-1.281.569-2.175 0-.822-.166-1.52-.498-2.094-.332-.575-.773-.862-1.323-.862-.48 0-.878.228-1.192.683a2.694 2.694 0 0 0-.471 1.57v2.971Z"
              clip-rule="evenodd" fill-rule="evenodd" data-color="2"></path>
    </g>
</svg>
