<svg width="114" height="23" viewBox="0 0 114 23" fill="none" xmlns="http://www.w3.org/2000/svg">
    <path d="M26.8008 18.34C26.8008 19.3906 27.6513 20.2411 28.7019 20.2411C29.7524 20.2411 30.6029 19.3906 30.6029 18.3651V18.34C31.5034 19.4156 32.7541 20.3412 34.7803 20.3412C37.9571 20.3412 40.8837 17.8898 40.8837 13.4123V13.3622C40.8837 8.88472 37.907 6.43334 34.7803 6.43334C32.8042 6.43334 31.5284 7.35886 30.6029 8.60956V3.58173C30.6029 2.53114 29.7524 1.68066 28.7019 1.68066C27.6513 1.68066 26.8008 2.53114 26.8008 3.58173V18.34ZM33.8047 17.1143C32.0287 17.1143 30.5529 15.6385 30.5529 13.4123V13.3622C30.5529 11.136 32.0287 9.66015 33.8047 9.66015C35.5807 9.66015 37.0816 11.136 37.0816 13.3622V13.4123C37.0816 15.6635 35.5807 17.1143 33.8047 17.1143Z"
          fill="#fff"/>
    <path d="M53.8611 8.43446C53.8611 7.38387 53.0106 6.53339 51.9601 6.53339C50.9095 6.53339 50.059 7.38387 50.059 8.43446V14.1627C50.059 15.9637 49.1335 16.8892 47.6826 16.8892C46.2318 16.8892 45.3814 15.9637 45.3814 14.1627V8.43446C45.3814 7.38387 44.5309 6.53339 43.4803 6.53339C42.4297 6.53339 41.5792 7.38387 41.5792 8.43446V15.3634C41.5792 18.4401 43.2552 20.3412 46.1318 20.3412C48.0579 20.3412 49.1835 19.3156 50.059 18.19V18.34C50.059 19.3906 50.9095 20.2411 51.9601 20.2411C53.0106 20.2411 53.8611 19.3906 53.8611 18.34V8.43446Z"
          fill="#fff"/>
    <path d="M55.2631 18.34C55.2631 19.3906 56.1136 20.2411 57.1642 20.2411C58.2147 20.2411 59.0652 19.3906 59.0652 18.3651V18.34C59.9657 19.4156 61.2164 20.3412 63.2426 20.3412C66.4194 20.3412 69.346 17.8898 69.346 13.4123V13.3622C69.346 8.88472 66.3693 6.43334 63.2426 6.43334C61.2665 6.43334 59.9907 7.35886 59.0652 8.60956V3.58173C59.0652 2.53114 58.2147 1.68066 57.1642 1.68066C56.1136 1.68066 55.2631 2.53114 55.2631 3.58173V18.34ZM62.267 17.1143C60.491 17.1143 59.0152 15.6385 59.0152 13.4123V13.3622C59.0152 11.136 60.491 9.66015 62.267 9.66015C64.043 9.66015 65.5439 11.136 65.5439 13.3622V13.4123C65.5439 15.6635 64.043 17.1143 62.267 17.1143Z"
          fill="#fff"/>
    <path d="M70.1416 18.34C70.1416 19.3906 70.992 20.2411 72.0426 20.2411C73.0932 20.2411 73.9437 19.3906 73.9437 18.3651V18.34C74.8442 19.4156 76.0949 20.3412 78.1211 20.3412C81.2978 20.3412 84.2245 17.8898 84.2245 13.4123V13.3622C84.2245 8.88472 81.2478 6.43334 78.1211 6.43334C76.1449 6.43334 74.8692 7.35886 73.9437 8.60956V3.58173C73.9437 2.53114 73.0932 1.68066 72.0426 1.68066C70.992 1.68066 70.1416 2.53114 70.1416 3.58173V18.34ZM77.1455 17.1143C75.3695 17.1143 73.8937 15.6385 73.8937 13.4123V13.3622C73.8937 11.136 75.3695 9.66015 77.1455 9.66015C78.9215 9.66015 80.4223 11.136 80.4223 13.3622V13.4123C80.4223 15.6635 78.9215 17.1143 77.1455 17.1143Z"
          fill="#fff"/>
    <path d="M85.1952 18.34C85.1952 19.3906 86.0456 20.2411 87.0962 20.2411C88.1468 20.2411 88.9973 19.3906 88.9973 18.34V3.58173C88.9973 2.53114 88.1468 1.68066 87.0962 1.68066C86.0456 1.68066 85.1952 2.53114 85.1952 3.58173V18.34Z"
          fill="#fff"/>
    <path d="M93.6439 12.3367C93.944 10.6107 94.9696 9.48505 96.5455 9.48505C98.1464 9.48505 99.1469 10.6357 99.3721 12.3367H93.6439ZM101.573 18.7653C101.848 18.5151 102.074 18.1399 102.074 17.6396C102.074 16.7892 101.448 16.1388 100.598 16.1388C100.198 16.1388 99.9474 16.2389 99.6722 16.439C98.8968 17.0143 98.0213 17.3395 96.9707 17.3395C95.2698 17.3395 94.0691 16.439 93.6939 14.713H101.223C102.224 14.713 102.999 13.9876 102.999 12.887C102.999 10.1104 101.023 6.43334 96.5455 6.43334C92.6433 6.43334 89.9168 9.58511 89.9168 13.4123V13.4623C89.9168 17.5646 92.8934 20.3912 96.9207 20.3912C98.8718 20.3912 100.398 19.7658 101.573 18.7653Z"
          fill="#fff"/>
    <path d="M108.609 20.3412C111.511 20.3412 113.737 18.9904 113.737 16.0137V15.9637C113.737 13.5123 111.561 12.6118 109.685 11.9865C108.234 11.4862 106.958 11.136 106.958 10.3856V10.3355C106.958 9.81024 107.434 9.41001 108.359 9.41001C109.16 9.41001 110.185 9.7352 111.261 10.2605C111.511 10.3856 111.686 10.4356 111.961 10.4356C112.812 10.4356 113.487 9.78522 113.487 8.93475C113.487 8.28438 113.137 7.7841 112.587 7.50894C111.286 6.85858 109.835 6.48337 108.434 6.48337C105.733 6.48337 103.531 8.00923 103.531 10.7358V10.7858C103.531 13.3872 105.658 14.2627 107.534 14.8131C109.01 15.2633 110.31 15.5385 110.31 16.3639V16.414C110.31 17.0143 109.81 17.4145 108.709 17.4145C107.634 17.4145 106.358 17.0143 105.082 16.2138C104.882 16.0888 104.607 16.0137 104.332 16.0137C103.481 16.0137 102.831 16.6641 102.831 17.5146C102.831 18.1149 103.156 18.5652 103.556 18.8153C105.182 19.8659 106.958 20.3412 108.609 20.3412Z"
          fill="#fff"/>
    <circle cx="11.5" cy="11.5" r="10.25" stroke="#fff" stroke-width="2.5"/>
    <path d="M11.625 17.25C10.5883 17.25 9.68408 17 8.66284 16.4108C7.76483 15.8927 7.01893 15.1475 6.5 14.25"
          stroke="#fff" stroke-width="2.5" stroke-linecap="round" stroke-linejoin="round"/>
</svg>
