<?xml version="1.0" encoding="utf-8"?>
<!-- Generator: Adobe Illustrator 26.1.0, SVG Export Plug-In . SVG Version: 6.00 Build 0)  -->
<svg version="1.1" id="Layer_1" xmlns="http://www.w3.org/2000/svg" x="0px"
	 y="0px"
	 viewBox="0 0 308 66.6" style="enable-background:new 0 0 308 66.6;" xml:space="preserve">
<style type="text/css">
	.st0{fill:#FFFFFF;}
</style>
	<rect class="st0" width="85" height="5.4"/>
	<rect y="13.4" class="st0" width="85" height="5.4"/>
	<rect y="26.8" class="st0" width="85" height="5.4"/>
	<rect x="26.4" class="st0" width="5.4" height="66.6"/>
	<rect x="39.8" class="st0" width="5.4" height="66.6"/>
	<rect x="53.2" class="st0" width="5.4" height="66.6"/>
	<polygon class="st0" points="123,18.2 123,23.1 131.5,23.1 132.3,23.1 132.3,48.4 137.6,48.4 137.6,23.1 138.4,23.1 146.9,23.1
	146.9,18.2 "/>
	<path class="st0" d="M169.4,18.3h5.4v30.1h-5.4V18.3z"/>
	<path class="st0" d="M200.3,18.3h5.4v25.2h14.4v4.9h-19.8L200.3,18.3L200.3,18.3z"/>
	<path class="st0" d="M239.8,18.3h19.9v4.9h-14.6v7.4H259v4.8h-13.8v8.2h15.3v4.9h-20.7V18.3z"/>
	<path class="st0" d="M280.8,18.3h11.9c2,0,3.9,0.3,5.7,0.9c1.8,0.6,3.5,1.5,4.9,2.8c1.5,1.3,2.6,2.9,3.4,4.7
	c0.9,2.1,1.3,4.3,1.3,6.6c0.1,4.4-1.8,8.6-5.2,11.4c-1.5,1.2-3.3,2.2-5.1,2.8c-1.8,0.6-3.7,0.9-5.5,0.9H281V18.3H280.8z M290.1,43.5
	c1.6,0,3.2-0.2,4.7-0.6c1.4-0.3,2.7-0.9,3.9-1.8c1.1-0.8,2-1.9,2.6-3.1c0.7-1.5,1-3.1,1-4.7c0-1.6-0.3-3.2-0.8-4.7
	c-0.5-1.2-1.3-2.3-2.4-3.2c-1.1-0.8-2.3-1.4-3.6-1.8c-1.5-0.4-3-0.6-4.5-0.6h-4.9v20.4L290.1,43.5L290.1,43.5z"/>
</svg>
